# xmcd
#
# Track frame offsets:
#	150
#	19277
#	34995
#	56517
#	74407
#	93167
#	108585
#	129965
#	131720
#	149430
#	165902
#	177387
#	193627
#	211680
#	224950
#
# Disc length: 3277 seconds
#
# Revision: 0
# Processed by: cddbd v1.5.1PL2 Copyright (c) Steve Scherf et al.
# Submitted via: dBpowerAMP V4.0
#
DISCID=e30ccb0f
DTITLE=Don Blas - Capo Di Tutti Capi
DYEAR=2000
DGENRE=Hip-Hop
TTITLE0=Peruvian Connection
TTITLE1=12 Rules of Rap
TTITLE2=Get 'Em All
TTITLE3=Filthy Business
TTITLE4=Still B Me and U
TTITLE5=Thought They Knew
TTITLE6=If Yo Hustle
TTITLE7=Say MOBSTYLE
TTITLE8=The Chase Is On
TTITLE9=Hazardous and Harmful
TTITLE10=Vendetta
TTITLE11=U Don't Wanna C Me
TTITLE12=X-Cution Style
TTITLE13=One More Tear
TTITLE14=See What We Gone Do
EXTD=
EXTT0=
EXTT1=
EXTT2=
EXTT3=
EXTT4=
EXTT5=
EXTT6=
EXTT7=
EXTT8=
EXTT9=
EXTT10=
EXTT11=
EXTT12=
EXTT13=
EXTT14=
PLAYORDER=
